<svg xmlns="http://www.w3.org/2000/svg" width="66.667" height="66.667" viewBox="0 0 50 50" xmlns:v="https://vecta.io/nano"><path d="M24.645 24.086c3.31 0 6.172-1.187 8.516-3.527s3.527-5.207 3.527-8.516S35.5 5.87 33.16 3.527 27.953 0 24.645 0 18.47 1.188 16.13 3.527s-3.527 5.207-3.527 8.516 1.184 6.172 3.527 8.516 5.207 3.527 8.516 3.527zm21.07 14.363c-.066-.977-.203-2.04-.402-3.16-.203-1.133-.465-2.2-.777-3.176-.324-1.012-.762-2.008-1.31-2.965-.562-.992-1.227-1.855-1.97-2.566-.777-.742-1.727-1.34-2.828-1.777s-2.312-.652-3.61-.652c-.512 0-1.004.207-1.957.828l-2.04 1.316c-.656.418-1.543.81-2.64 1.16-1.07.348-2.152.523-3.227.523a10.44 10.44 0 0 1-3.227-.523c-1.094-.352-1.98-.742-2.637-1.16l-2.04-1.316c-.953-.62-1.445-.828-1.957-.828-1.3 0-2.516.22-3.61.652-1.102.438-2.055 1.035-2.832 1.777-.742.71-1.406 1.574-1.97 2.566-.543.957-.98 1.953-1.305 2.96-.312.98-.574 2.047-.777 3.176a29.85 29.85 0 0 0-.402 3.164l-.102 2.953c0 2.61.828 4.723 2.465 6.28C8.184 49.22 10.32 50 12.922 50h24.074c2.602 0 4.738-.78 6.355-2.316 1.637-1.56 2.465-3.672 2.465-6.28l-.102-2.953zm0 0" fill="#FFFFFFCC"/></svg>