<svg width="242" height="52" viewBox="0 0 242 52" fill="none" xmlns="http://www.w3.org/2000/svg">
<path d="M12.887 0.392C16.513 0.392 19.6817 1.11067 22.393 2.548C25.1043 3.98533 27.195 6.01067 28.665 8.624C30.1677 11.2047 30.919 14.1937 30.919 17.591C30.919 20.9557 30.1677 23.9447 28.665 26.558C27.195 29.1713 25.088 31.1967 22.344 32.634C19.6327 34.0713 16.4803 34.79 12.887 34.79H0V0.392H12.887ZM12.348 27.538C15.5167 27.538 17.983 26.6723 19.747 24.941C21.511 23.2097 22.393 20.7597 22.393 17.591C22.393 14.4223 21.511 11.956 19.747 10.192C17.983 8.428 15.5167 7.546 12.348 7.546H8.379V27.538H12.348Z" fill="#41A2E8"/>
<path d="M57.0146 28.714H44.1766L42.1186 34.79H33.3476L45.7936 0.392H55.4956L67.9416 34.79H59.0726L57.0146 28.714ZM54.8586 22.246L50.5956 9.653L46.3816 22.246H54.8586Z" fill="#41A2E8"/>
<path d="M102.501 34.79H94.1225L80.1085 13.573V34.79H71.7295V0.392H80.1085L94.1225 21.707V0.392H102.501V34.79Z" fill="#41A2E8"/>
<path d="M131.409 11.27C130.789 10.1267 129.89 9.261 128.714 8.673C127.571 8.05233 126.215 7.742 124.647 7.742C121.936 7.742 119.764 8.64033 118.13 10.437C116.497 12.201 115.68 14.5693 115.68 17.542C115.68 20.7107 116.53 23.1933 118.228 24.99C119.96 26.754 122.328 27.636 125.333 27.636C127.391 27.636 129.123 27.1133 130.527 26.068C131.965 25.0227 133.01 23.52 133.663 21.56H123.03V15.386H141.258V23.177C140.638 25.2677 139.576 27.2113 138.073 29.008C136.603 30.8047 134.725 32.2583 132.438 33.369C130.152 34.4797 127.571 35.035 124.696 35.035C121.299 35.035 118.261 34.3 115.582 32.83C112.936 31.3273 110.862 29.253 109.359 26.607C107.889 23.961 107.154 20.9393 107.154 17.542C107.154 14.1447 107.889 11.123 109.359 8.477C110.862 5.79833 112.936 3.724 115.582 2.254C118.228 0.751333 121.25 0 124.647 0C128.763 0 132.226 0.996332 135.035 2.989C137.877 4.98167 139.756 7.742 140.67 11.27H131.409Z" fill="#41A2E8"/>
<path d="M154.278 7.105V14.063H165.499V20.531H154.278V28.077H166.969V34.79H145.899V0.392H166.969V7.105H154.278Z" fill="#41A2E8"/>
<path d="M189.951 34.79L182.797 21.805H180.788V34.79H172.409V0.392H186.472C189.184 0.392 191.487 0.865667 193.381 1.813C195.309 2.76033 196.746 4.067 197.693 5.733C198.641 7.36633 199.114 9.19567 199.114 11.221C199.114 13.5077 198.461 15.5493 197.154 17.346C195.88 19.1427 193.986 20.4167 191.47 21.168L199.408 34.79H189.951ZM180.788 15.876H185.982C187.518 15.876 188.661 15.5003 189.412 14.749C190.196 13.9977 190.588 12.936 190.588 11.564C190.588 10.2573 190.196 9.22833 189.412 8.477C188.661 7.72567 187.518 7.35 185.982 7.35H180.788V15.876Z" fill="#41A2E8"/>
<path d="M209.165 0.539001V22.099C209.165 25.4963 209.965 28.0117 211.566 29.645C213.199 31.2783 215.421 32.095 218.23 32.095C221.039 32.095 223.228 31.2947 224.796 29.694C226.397 28.0607 227.197 25.529 227.197 22.099V0.539001H230.627V22.05C230.627 26.3947 229.467 29.6613 227.148 31.85C224.861 34.0387 221.872 35.133 218.181 35.133C214.49 35.133 211.484 34.0387 209.165 31.85C206.878 29.6613 205.735 26.3947 205.735 22.05V0.539001H209.165Z" fill="black"/>
<path d="M241.707 0.539001V34.79H238.277V0.539001H241.707Z" fill="black"/>
<path d="M6.194 51.79L3.426 47.118H1.362V51.79H0.242004V40.606H3.602C4.85 40.606 5.794 40.9047 6.434 41.502C7.08467 42.0993 7.41 42.8833 7.41 43.854C7.41 44.6647 7.17534 45.358 6.706 45.934C6.24734 46.4993 5.56467 46.8673 4.658 47.038L7.538 51.79H6.194ZM1.362 46.206H3.618C4.49267 46.206 5.14867 45.9927 5.586 45.566C6.034 45.1393 6.258 44.5687 6.258 43.854C6.258 43.118 6.04467 42.5527 5.618 42.158C5.19134 41.7527 4.51934 41.55 3.602 41.55H1.362V46.206Z" fill="black"/>
<path d="M12.0326 41.518V45.694H16.2726V46.622H12.0326V50.862H16.7526V51.79H10.9126V40.59H16.7526V41.518H12.0326Z" fill="black"/>
<path d="M26.7195 49.134H21.6315L20.6555 51.79H19.4715L23.5515 40.75H24.8155L28.8795 51.79H27.6955L26.7195 49.134ZM26.3835 48.206L24.1755 42.158L21.9675 48.206H26.3835Z" fill="black"/>
<path d="M31.445 46.19C31.445 45.0913 31.685 44.11 32.165 43.246C32.645 42.3713 33.301 41.694 34.133 41.214C34.965 40.7233 35.893 40.478 36.917 40.478C38.165 40.478 39.2317 40.7767 40.117 41.374C41.013 41.9607 41.6637 42.7927 42.069 43.87H40.757C40.437 43.1127 39.9463 42.5207 39.285 42.094C38.6343 41.6673 37.845 41.454 36.917 41.454C36.0957 41.454 35.3543 41.646 34.693 42.03C34.0423 42.414 33.5303 42.9687 33.157 43.694C32.7837 44.4087 32.597 45.2407 32.597 46.19C32.597 47.1393 32.7837 47.9713 33.157 48.686C33.5303 49.4007 34.0423 49.95 34.693 50.334C35.3543 50.718 36.0957 50.91 36.917 50.91C37.845 50.91 38.6343 50.702 39.285 50.286C39.9463 49.8593 40.437 49.2727 40.757 48.526H42.069C41.6637 49.5927 41.013 50.4193 40.117 51.006C39.221 51.5927 38.1543 51.886 36.917 51.886C35.893 51.886 34.965 51.646 34.133 51.166C33.301 50.6753 32.645 49.998 32.165 49.134C31.685 48.27 31.445 47.2887 31.445 46.19Z" fill="black"/>
<path d="M52.1248 40.606V41.534H49.0208V51.79H47.9008V41.534H44.7808V40.606H52.1248Z" fill="black"/>
<path d="M60.3319 46.19C60.3319 45.0913 60.5719 44.11 61.0519 43.246C61.5319 42.3713 62.1879 41.694 63.0199 41.214C63.8519 40.7233 64.7799 40.478 65.8039 40.478C67.0519 40.478 68.1186 40.7767 69.0039 41.374C69.8999 41.9607 70.5505 42.7927 70.9559 43.87H69.6439C69.3239 43.1127 68.8332 42.5207 68.1719 42.094C67.5212 41.6673 66.7319 41.454 65.8039 41.454C64.9825 41.454 64.2412 41.646 63.5799 42.03C62.9292 42.414 62.4172 42.9687 62.0439 43.694C61.6705 44.4087 61.4839 45.2407 61.4839 46.19C61.4839 47.1393 61.6705 47.9713 62.0439 48.686C62.4172 49.4007 62.9292 49.95 63.5799 50.334C64.2412 50.718 64.9825 50.91 65.8039 50.91C66.7319 50.91 67.5212 50.702 68.1719 50.286C68.8332 49.8593 69.3239 49.2727 69.6439 48.526H70.9559C70.5505 49.5927 69.8999 50.4193 69.0039 51.006C68.1079 51.5927 67.0412 51.886 65.8039 51.886C64.7799 51.886 63.8519 51.646 63.0199 51.166C62.1879 50.6753 61.5319 49.998 61.0519 49.134C60.5719 48.27 60.3319 47.2887 60.3319 46.19Z" fill="black"/>
<path d="M79.4916 51.902C78.457 51.902 77.5183 51.662 76.6756 51.182C75.833 50.6913 75.1663 50.014 74.6756 49.15C74.1956 48.2753 73.9556 47.2887 73.9556 46.19C73.9556 45.0913 74.1956 44.11 74.6756 43.246C75.1663 42.3713 75.833 41.694 76.6756 41.214C77.5183 40.7233 78.457 40.478 79.4916 40.478C80.537 40.478 81.481 40.7233 82.3236 41.214C83.1663 41.694 83.8276 42.3713 84.3076 43.246C84.7876 44.11 85.0276 45.0913 85.0276 46.19C85.0276 47.2887 84.7876 48.2753 84.3076 49.15C83.8276 50.014 83.1663 50.6913 82.3236 51.182C81.481 51.662 80.537 51.902 79.4916 51.902ZM79.4916 50.926C80.3236 50.926 81.0703 50.734 81.7316 50.35C82.393 49.966 82.9156 49.4167 83.2996 48.702C83.6836 47.9767 83.8756 47.1393 83.8756 46.19C83.8756 45.2407 83.6836 44.4087 83.2996 43.694C82.9156 42.9793 82.393 42.43 81.7316 42.046C81.0703 41.662 80.3236 41.47 79.4916 41.47C78.6596 41.47 77.913 41.662 77.2516 42.046C76.5903 42.43 76.0676 42.9793 75.6836 43.694C75.2996 44.4087 75.1076 45.2407 75.1076 46.19C75.1076 47.1393 75.2996 47.9767 75.6836 48.702C76.0676 49.4167 76.5903 49.966 77.2516 50.35C77.913 50.734 78.6596 50.926 79.4916 50.926Z" fill="black"/>
<path d="M99.285 40.75V51.79H98.165V42.974L94.229 51.79H93.413L89.477 43.006V51.79H88.357V40.75H89.541L93.813 50.318L98.085 40.75H99.285Z" fill="black"/>
<path d="M110.258 43.822C110.258 44.782 109.943 45.5553 109.314 46.142C108.684 46.7287 107.74 47.022 106.482 47.022H104.226V51.79H103.106V40.606H106.482C107.73 40.606 108.668 40.8993 109.298 41.486C109.938 42.0727 110.258 42.8513 110.258 43.822ZM106.482 46.062C108.231 46.062 109.106 45.3153 109.106 43.822C109.106 43.0753 108.898 42.51 108.482 42.126C108.066 41.742 107.399 41.55 106.482 41.55H104.226V46.062H106.482Z" fill="black"/>
<path d="M118.441 51.902C117.406 51.902 116.468 51.662 115.625 51.182C114.782 50.6913 114.116 50.014 113.625 49.15C113.145 48.2753 112.905 47.2887 112.905 46.19C112.905 45.0913 113.145 44.11 113.625 43.246C114.116 42.3713 114.782 41.694 115.625 41.214C116.468 40.7233 117.406 40.478 118.441 40.478C119.486 40.478 120.43 40.7233 121.273 41.214C122.116 41.694 122.777 42.3713 123.257 43.246C123.737 44.11 123.977 45.0913 123.977 46.19C123.977 47.2887 123.737 48.2753 123.257 49.15C122.777 50.014 122.116 50.6913 121.273 51.182C120.43 51.662 119.486 51.902 118.441 51.902ZM118.441 50.926C119.273 50.926 120.02 50.734 120.681 50.35C121.342 49.966 121.865 49.4167 122.249 48.702C122.633 47.9767 122.825 47.1393 122.825 46.19C122.825 45.2407 122.633 44.4087 122.249 43.694C121.865 42.9793 121.342 42.43 120.681 42.046C120.02 41.662 119.273 41.47 118.441 41.47C117.609 41.47 116.862 41.662 116.201 42.046C115.54 42.43 115.017 42.9793 114.633 43.694C114.249 44.4087 114.057 45.2407 114.057 46.19C114.057 47.1393 114.249 47.9767 114.633 48.702C115.017 49.4167 115.54 49.966 116.201 50.35C116.862 50.734 117.609 50.926 118.441 50.926Z" fill="black"/>
<path d="M135.738 51.79H134.618L128.426 42.382V51.79H127.306V40.606H128.426L134.618 49.998V40.606H135.738V51.79Z" fill="black"/>
<path d="M140.675 41.518V45.694H144.915V46.622H140.675V50.862H145.395V51.79H139.555V40.59H145.395V41.518H140.675Z" fill="black"/>
<path d="M157.314 51.79H156.194L150.002 42.382V51.79H148.882V40.606H150.002L156.194 49.998V40.606H157.314V51.79Z" fill="black"/>
<path d="M167.675 40.606V41.534H164.571V51.79H163.451V41.534H160.331V40.606H167.675Z" fill="black"/>
<path d="M177.514 50.878H181.53V51.79H176.394V40.606H177.514V50.878Z" fill="black"/>
<path d="M185.528 40.606V51.79H184.408V40.606H185.528Z" fill="black"/>
<path d="M194.576 46.014C195.206 46.1313 195.739 46.4513 196.176 46.974C196.614 47.4967 196.833 48.1047 196.833 48.798C196.833 49.3633 196.688 49.8753 196.4 50.334C196.123 50.782 195.713 51.1393 195.169 51.406C194.624 51.662 193.974 51.79 193.216 51.79H189.344V40.606H193.104C194.235 40.606 195.094 40.8673 195.68 41.39C196.278 41.9127 196.576 42.59 196.576 43.422C196.576 44.1153 196.39 44.6807 196.016 45.118C195.643 45.5447 195.163 45.8433 194.576 46.014ZM190.464 45.55H193.072C193.83 45.55 194.411 45.374 194.816 45.022C195.232 44.6593 195.441 44.1633 195.441 43.534C195.441 42.9153 195.232 42.43 194.816 42.078C194.411 41.726 193.814 41.55 193.025 41.55H190.464V45.55ZM193.137 50.846C193.947 50.846 194.577 50.654 195.025 50.27C195.483 49.886 195.712 49.358 195.712 48.686C195.712 48.014 195.472 47.4807 194.992 47.086C194.523 46.6807 193.889 46.478 193.089 46.478H190.464V50.846H193.137Z" fill="black"/>
<path d="M206.123 51.79L203.355 47.118H201.291V51.79H200.171V40.606H203.531C204.779 40.606 205.723 40.9047 206.363 41.502C207.014 42.0993 207.339 42.8833 207.339 43.854C207.339 44.6647 207.105 45.358 206.635 45.934C206.177 46.4993 205.494 46.8673 204.587 47.038L207.467 51.79H206.123ZM201.291 46.206H203.547C204.422 46.206 205.078 45.9927 205.515 45.566C205.963 45.1393 206.187 44.5687 206.187 43.854C206.187 43.118 205.974 42.5527 205.547 42.158C205.121 41.7527 204.449 41.55 203.531 41.55H201.291V46.206Z" fill="black"/>
<path d="M217.322 49.134H212.234L211.258 51.79H210.074L214.154 40.75H215.418L219.482 51.79H218.298L217.322 49.134ZM216.986 48.206L214.778 42.158L212.57 48.206H216.986Z" fill="black"/>
<path d="M228.512 51.79L225.744 47.118H223.68V51.79H222.56V40.606H225.92C227.168 40.606 228.112 40.9047 228.752 41.502C229.402 42.0993 229.728 42.8833 229.728 43.854C229.728 44.6647 229.493 45.358 229.024 45.934C228.565 46.4993 227.882 46.8673 226.976 47.038L229.856 51.79H228.512ZM223.68 46.206H225.936C226.81 46.206 227.466 45.9927 227.904 45.566C228.352 45.1393 228.576 44.5687 228.576 43.854C228.576 43.118 228.362 42.5527 227.936 42.158C227.509 41.7527 226.837 41.55 225.92 41.55H223.68V46.206Z" fill="black"/>
<path d="M240.622 40.606L237.038 47.438V51.79H235.918V47.438L232.302 40.606H233.566L236.478 46.414L239.374 40.606H240.622Z" fill="black"/>
</svg>
